<svg xmlns:dc="http://purl.org/dc/elements/1.1/" xmlns:cc="http://creativecommons.org/ns#" xmlns:rdf="http://www.w3.org/1999/02/22-rdf-syntax-ns#" xmlns:svg="http://www.w3.org/2000/svg" xmlns="http://www.w3.org/2000/svg" version="1.1" width="120" height="88.803375" viewBox="0 0 120 88.803376" id="Layer_1" xml:space="preserve"><metadata id="metadata21"><rdf:rdf><cc:work rdf:about=""><dc:format>image/svg+xml</dc:format><dc:type rdf:resource="http://purl.org/dc/dcmitype/StillImage"></dc:type><dc:title></dc:title></cc:work></rdf:rdf></metadata><defs id="defs19"></defs><g transform="scale(2.2200844,2.2200844)" id="g3" style="fill:#fff;fill-opacity:1"><path d="M 33.395,38.787 H 14.631 c -0.477,0 -0.863,0.388 -0.863,0.865 v 0.321 h 20.488 v -0.321 c 0,-0.477 -0.384,-0.865 -0.861,-0.865 z" id="path5" style="fill:#fff;fill-opacity:1"></path><g id="g7" style="fill:#fff;fill-opacity:1"><rect width="12.692" height="2.598" x="17.667" y="35.610001" id="rect9" style="fill:#fff;fill-opacity:1"></rect><path d="M 36.675,27.257 H 2.97 V 2.875 H 45.051 V 7.133 H 48.03 V 1.195 C 48.03,0.533 47.491,0 46.831,0 H 1.196 C 0.532,0 0,0.533 0,1.195 v 32.487 c 0,0.658 0.532,1.191 1.196,1.191 h 35.479 v -7.616 z" id="path11" style="fill:#fff;fill-opacity:1"></path><g id="g13" style="fill:#fff;fill-opacity:1"><path d="M 51.613,8.51 H 40.49 c -1.346,0 -2.438,1.091 -2.438,2.438 v 26.614 c 0,1.347 1.092,2.438 2.438,2.438 h 11.124 c 1.345,0 2.438,-1.092 2.438,-2.438 V 10.947 c 0,-1.346 -1.094,-2.437 -2.439,-2.437 z m -7.656,1.776 h 4.19 c 0.118,0 0.218,0.144 0.218,0.319 0,0.181 -0.1,0.319 -0.218,0.319 h -4.19 c -0.121,0 -0.215,-0.139 -0.215,-0.319 0,-0.175 0.094,-0.319 0.215,-0.319 z m 2.092,27.918 c -0.775,0 -1.409,-0.634 -1.409,-1.415 0,-0.779 0.634,-1.411 1.409,-1.411 0.782,0 1.413,0.632 1.413,1.411 0,0.781 -0.631,1.415 -1.413,1.415 z m 6.934,-4.365 H 39.121 V 13.301 h 13.862 v 20.538 z" id="path15" style="fill:#fff;fill-opacity:1"></path></g></g></g></svg>